<svg width="156" height="156" viewBox="0 0 156 156" fill="none" xmlns="http://www.w3.org/2000/svg">
<g clip-path="url(#clip0_460_8)">
<rect width="156" height="156" rx="16" fill="white"/>
<path d="M33.616 155.16C30.88 155.16 28.7013 154.197 27.08 152.272C25.4587 150.448 24.648 148.32 24.648 145.888C24.648 143.963 25.2053 142.341 26.32 141.024C27.4347 139.707 28.9547 139.048 30.88 139.048C32.5013 139.048 33.6667 139.403 34.376 140.112C35.0853 140.821 35.592 141.632 35.896 142.544C36.2 143.456 36.504 144.267 36.808 144.976C37.112 145.685 37.72 146.04 38.632 146.04C39.7467 146.04 40.76 145.229 41.672 143.608C42.584 142.088 43.8507 138.795 45.472 133.728C46.4853 130.688 47.0933 128.053 47.296 125.824C47.6 123.595 47.5493 121.213 47.144 118.68C46.84 116.147 46.08 113.056 44.864 109.408L28.296 56.664C27.5867 54.232 26.8773 52.6613 26.168 51.952C25.56 51.2427 24.5467 50.736 23.128 50.432L20.848 49.976C19.5307 49.672 18.872 49.0133 18.872 48C18.872 46.9867 19.5813 46.48 21 46.48H46.08C47.4987 46.48 48.208 46.9867 48.208 48C48.208 49.1147 47.5493 49.7733 46.232 49.976L43.8 50.28C41.368 50.584 39.7973 51.192 39.088 52.104C38.48 52.9147 38.5307 54.4347 39.24 56.664L52.616 101.2C52.92 102.213 53.376 102.72 53.984 102.72C54.6933 102.72 55.2 102.213 55.504 101.2L68.424 59.4C69.2347 56.664 69.4373 54.6373 69.032 53.32C68.728 51.9013 67.3093 50.9893 64.776 50.584L61.584 49.976C60.2667 49.672 59.608 49.0133 59.608 48C59.608 46.9867 60.3173 46.48 61.736 46.48H81.04C82.4587 46.48 83.168 47.0373 83.168 48.152C83.168 49.1653 82.56 49.8747 81.344 50.28L79.976 50.736C78.456 51.2427 77.1893 52.1547 76.176 53.472C75.1627 54.7893 74.0987 57.0693 72.984 60.312L50.336 130.992C48.1067 138.085 46.08 143.355 44.256 146.8C42.5333 150.245 40.8613 152.475 39.24 153.488C37.6187 154.603 35.744 155.16 33.616 155.16ZM87.9999 125.368C86.6826 125.368 85.7706 124.355 85.2639 122.328L66.8719 56.664C66.1626 54.232 65.4533 52.6613 64.7439 51.952C64.1359 51.2427 63.1226 50.736 61.7039 50.432L59.4239 49.976C58.1066 49.672 57.4479 49.0133 57.4479 48C57.4479 46.9867 58.1573 46.48 59.5759 46.48H84.1999C85.6186 46.48 86.3279 46.9867 86.3279 48C86.3279 49.1147 85.6693 49.7733 84.3519 49.976L81.9199 50.28C79.4879 50.584 77.9679 51.192 77.3599 52.104C76.7519 52.9147 76.7519 54.4347 77.3599 56.664L89.3679 100.896C89.6719 101.909 90.1279 102.416 90.7359 102.416C91.4453 102.416 91.9519 101.909 92.2559 100.896L102.592 61.528C102.795 60.7173 102.896 59.9067 102.896 59.096C102.997 58.2853 102.896 57.424 102.592 56.512C101.883 54.08 101.173 52.56 100.464 51.952C99.8559 51.2427 98.8426 50.736 97.4239 50.432L95.1439 49.976C93.8266 49.672 93.1679 49.0133 93.1679 48C93.1679 46.9867 93.8773 46.48 95.2959 46.48H119.92C121.339 46.48 122.048 46.9867 122.048 48C122.048 49.1147 121.389 49.7733 120.072 49.976L117.64 50.28C115.208 50.584 113.739 51.192 113.232 52.104C112.725 52.9147 112.675 54.4347 113.08 56.664L122.808 100.592C123.011 101.605 123.416 102.112 124.024 102.112C124.733 102.112 125.24 101.605 125.544 100.592L137.096 59.4C137.907 56.664 138.109 54.6373 137.704 53.32C137.4 51.9013 135.981 50.9893 133.448 50.584L130.256 49.976C128.939 49.672 128.28 49.0133 128.28 48C128.28 46.9867 128.989 46.48 130.408 46.48H149.408C150.827 46.48 151.536 47.0373 151.536 48.152C151.536 49.1653 150.928 49.8747 149.712 50.28L148.344 50.736C146.824 51.2427 145.507 52.1547 144.392 53.472C143.277 54.7893 142.264 57.0693 141.352 60.312L124.024 122.328C123.517 124.355 122.555 125.368 121.136 125.368C119.92 125.368 119.059 124.355 118.552 122.328L106.696 73.688C106.392 72.5733 105.885 72.016 105.176 72.016C104.568 71.9147 104.112 72.472 103.808 73.688L90.7359 122.328C90.2293 124.355 89.3173 125.368 87.9999 125.368ZM138.908 125.368C136.679 125.368 134.753 124.659 133.132 123.24C131.612 121.72 130.852 119.744 130.852 117.312C130.852 114.981 131.612 113.107 133.132 111.688C134.753 110.168 136.679 109.408 138.908 109.408C140.935 109.408 142.759 110.168 144.38 111.688C146.001 113.107 146.812 114.981 146.812 117.312C146.812 119.744 146.001 121.72 144.38 123.24C142.759 124.659 140.935 125.368 138.908 125.368Z" fill="#999999"/>
<path d="M3.04 124C1.824 124 1.216 123.443 1.216 122.328C1.216 121.315 1.77333 120.707 2.888 120.504L5.016 120.2C7.144 119.896 8.71467 119.288 9.728 118.376C10.7413 117.464 11.248 115.944 11.248 113.816V26.72C11.248 24.896 10.944 23.6293 10.336 22.92C9.82933 22.2107 8.86667 21.8053 7.448 21.704L3.952 21.248C2.83733 21.0453 2.28 20.4373 2.28 19.424C2.28 18.4107 2.83733 17.8027 3.952 17.6C6.78933 16.992 9.22133 16.2827 11.248 15.472C13.2747 14.6613 14.9467 13.8507 16.264 13.04C17.8853 12.0267 19.1013 11.52 19.912 11.52C21.0267 11.52 21.584 12.3307 21.584 13.952V113.816C21.584 115.944 21.888 117.464 22.496 118.376C23.2053 119.187 24.624 119.744 26.752 120.048L30.248 120.504C31.3627 120.707 31.92 121.315 31.92 122.328C31.92 123.443 31.312 124 30.096 124H3.04Z" fill="#999999"/>
</g>
<defs>
<clipPath id="clip0_460_8">
<rect width="156" height="156" rx="16" fill="white"/>
</clipPath>
</defs>
</svg>
